<svg width="94" height="92" viewBox="0 0 94 92" fill="none" xmlns="http://www.w3.org/2000/svg">
<path d="M61 46C61 55.3888 53.165 63 43.5 63C33.835 63 26 55.3888 26 46C26 36.6112 33.835 29 43.5 29C53.165 29 61 36.6112 61 46Z" fill="white"/>
<path d="M0.753254 39.0172L68.4895 0.565128M1.4593 39.2544L4.49227 46.308M3.9271 46.017L92.8941 26.7333M68.0856 0.653402L93.3604 26.9455M0.735687 56.3904L68.472 91.4244M0.56381 55.7215L3.59678 50.3061M68.1013 91.3295L93.3761 67.3745M4.13314 50.0607L93.1002 68.2629M61 46C61 55.3888 53.165 63 43.5 63C33.835 63 26 55.3888 26 46C26 36.6112 33.835 29 43.5 29C53.165 29 61 36.6112 61 46Z" stroke="white"/>
</svg>
